<?xml version="1.0" encoding="utf-8"?>
<!-- Generator: Adobe Illustrator 22.1.0, SVG Export Plug-In . SVG Version: 6.00 Build 0)  -->
<svg version="1.1" id="Layer_1" xmlns="http://www.w3.org/2000/svg" xmlns:xlink="http://www.w3.org/1999/xlink" x="0px" y="0px"
	 viewBox="0 0 30 30" style="enable-background:new 0 0 30 30;" xml:space="preserve">
<g>
	<polygon points="12.2,21.9 12.2,8.1 21.8,15 	"/>
</g>
<g>
	<path d="M54.8,2.4L72.4,15L54.8,27.6V2.4 M53.5,0v30l21-15L53.5,0L53.5,0z"/>
</g>
<g>
	<path d="M15,1.2c7.6,0,13.8,6.2,13.8,13.8S22.6,28.8,15,28.8S1.2,22.6,1.2,15S7.4,1.2,15,1.2 M15,0C6.7,0,0,6.7,0,15s6.7,15,15,15
		s15-6.7,15-15S23.3,0,15,0L15,0z"/>
</g>
</svg>
